<svg width="135" height="26" viewBox="0 0 135 26" fill="none" xmlns="http://www.w3.org/2000/svg">
<path d="M24.4538 6.21398L16.0815 7.27713C15.484 7.353 15.0361 7.86134 15.0361 8.46364V17.0433C15.0361 17.6421 15.4789 18.1486 16.0723 18.2286L24.4446 19.3582C25.1622 19.455 25.8005 18.897 25.8005 18.1729V7.4005C25.8005 6.68014 25.1684 6.12323 24.4538 6.21398Z" fill="#161616"/>
<path d="M19.1924 0.300102L0.995449 3.39585C0.420557 3.49365 0 3.9918 0 4.57495V21.5088C0 22.0974 0.428303 22.5986 1.00976 22.6902L19.2067 25.5595C19.9326 25.6739 20.589 25.1129 20.589 24.378V20.6942C20.589 20.523 20.4624 20.3782 20.2927 20.3555L14.6207 19.5946C14.0269 19.5149 13.5836 19.0083 13.5836 18.4092V12.92V7.39359C13.5836 6.8107 14.0038 6.3127 14.5784 6.21461L20.3048 5.23692C20.469 5.2089 20.589 5.06661 20.589 4.90007V1.4792C20.589 0.738493 19.9226 0.175874 19.1924 0.300102Z" fill="#1252D3"/>
<path d="M21.4546 14.8262H20.6444L20.4158 14.0905H19.0936L18.85 14.8262H18.0647L19.3421 11.2474H20.1871L21.4546 14.8262ZM19.7597 12.0675L19.2974 13.4742H20.207L19.7597 12.0675ZM21.8457 11.2474H22.5913V14.8262H21.8457V11.2474Z" fill="white"/>
<path d="M9.39076 11.8241C9.36007 11.732 9.31916 11.6502 9.26801 11.5479C9.21687 11.4558 9.14526 11.3637 9.07366 11.2717C8.99182 11.1898 8.89976 11.108 8.77701 11.0364C8.66449 10.9648 8.52128 10.9137 8.35762 10.8625C8.19395 10.8216 8.00983 10.8011 7.78478 10.8011C7.69272 10.8011 7.5802 10.8114 7.45745 10.8318C7.3347 10.8625 7.20172 10.9034 7.06874 10.9648C6.93577 11.0364 6.80279 11.1285 6.66981 11.241C6.54706 11.3535 6.42431 11.5069 6.33225 11.6911C6.21972 11.8854 6.13789 12.1105 6.07652 12.3764C6.01514 12.6424 5.98445 12.9595 5.98445 13.3277C5.98445 13.7267 6.02537 14.0745 6.1072 14.3916C6.18904 14.7087 6.31179 14.9746 6.46522 15.1894C6.61866 15.4043 6.81302 15.5679 7.03806 15.6804C7.25287 15.793 7.5086 15.8543 7.78478 15.8543C8.11212 15.8543 8.36785 15.8032 8.57243 15.7111C8.77701 15.6088 8.94068 15.4861 9.06343 15.3429C9.18618 15.1997 9.27824 15.0462 9.32939 14.8928C9.39076 14.7394 9.44191 14.5962 9.47259 14.4836H10.9967C10.9149 14.9439 10.7819 15.3429 10.5876 15.6804C10.3932 16.018 10.1579 16.2942 9.88176 16.5192C9.60557 16.7443 9.2987 16.9079 8.95091 17.0205C8.60312 17.133 8.23487 17.1841 7.84616 17.1841C7.30401 17.1841 6.81302 17.0921 6.39362 16.9079C5.97423 16.734 5.61621 16.4681 5.32979 16.1408C5.04337 15.8032 4.82856 15.394 4.67512 14.9133C4.52169 14.4427 4.45008 13.9108 4.45008 13.3277C4.45008 12.8777 4.491 12.4685 4.58306 12.1002C4.66489 11.732 4.78764 11.4047 4.94108 11.1182C5.09452 10.8318 5.27864 10.5966 5.49346 10.3817C5.69804 10.1772 5.92308 10.0033 6.17881 9.87028C6.42431 9.73731 6.68004 9.63501 6.95622 9.56341C7.23241 9.50203 7.5086 9.47135 7.78478 9.47135C8.18372 9.47135 8.54174 9.51226 8.84862 9.5941C9.15549 9.68616 9.43168 9.78845 9.66695 9.93166C9.90222 10.0749 10.0966 10.2283 10.2602 10.4124C10.4239 10.5966 10.5671 10.7807 10.6694 10.9648C10.7717 11.1592 10.8433 11.3535 10.9047 11.5376C10.9558 11.732 10.9865 11.9059 10.9967 12.0696H9.46236L9.39076 11.8241Z" fill="white"/>
<path d="M45.0103 9.42843C44.9476 9.2404 44.8641 9.07326 44.7596 8.86434C44.6551 8.67631 44.5089 8.48828 44.3626 8.30024C44.1955 8.1331 44.0075 7.96596 43.7568 7.81972C43.5269 7.67347 43.2345 7.56901 42.9002 7.46455C42.5659 7.38098 42.1898 7.33919 41.7302 7.33919C41.5422 7.33919 41.3123 7.36008 41.0616 7.40187C40.8109 7.46455 40.5393 7.54812 40.2677 7.67347C39.9961 7.81972 39.7245 8.00775 39.4529 8.23757C39.2022 8.46738 38.9515 8.78077 38.7635 9.15683C38.5337 9.55379 38.3665 10.0134 38.2412 10.5566C38.1158 11.0998 38.0531 11.7475 38.0531 12.4996C38.0531 13.3144 38.1367 14.0248 38.3038 14.6724C38.471 15.3201 38.7217 15.8633 39.0351 16.302C39.3485 16.7408 39.7454 17.0751 40.205 17.3049C40.6438 17.5347 41.1661 17.66 41.7302 17.66C42.3988 17.66 42.9211 17.5556 43.3389 17.3676C43.7568 17.1586 44.091 16.9079 44.3417 16.6154C44.5925 16.3229 44.7805 16.0095 44.885 15.6962C45.0103 15.3828 45.1148 15.0903 45.1774 14.8605H48.2904C48.1233 15.8006 47.8517 16.6154 47.4547 17.3049C47.0578 17.9943 46.5772 18.5584 46.0131 19.0181C45.449 19.4777 44.8223 19.812 44.1119 20.0418C43.4016 20.2716 42.6495 20.3761 41.8556 20.3761C40.7483 20.3761 39.7454 20.188 38.8888 19.812C38.0322 19.4568 37.301 18.9136 36.716 18.245C36.131 17.5556 35.6923 16.7199 35.3789 15.7379C35.0655 14.7769 34.9193 13.6905 34.9193 12.4996C34.9193 11.5804 35.0028 10.7447 35.1909 9.99253C35.358 9.2404 35.6087 8.57184 35.9221 7.98686C36.2355 7.40187 36.6116 6.92134 37.0503 6.4826C37.4681 6.06475 37.9278 5.70958 38.4501 5.43798C38.9515 5.16638 39.4738 4.95746 40.0379 4.81121C40.602 4.68585 41.1661 4.62318 41.7302 4.62318C42.545 4.62318 43.2762 4.70675 43.903 4.87389C44.5298 5.06192 45.0939 5.27084 45.5744 5.56334C46.0549 5.85583 46.4519 6.16922 46.7862 6.54528C47.1204 6.92134 47.4129 7.29741 47.6219 7.67347C47.8308 8.07043 47.977 8.46738 48.1024 8.84345C48.2068 9.2404 48.2695 9.59557 48.2904 9.92985H45.1566L45.0103 9.42843ZM49.788 14.4426C49.788 13.586 49.9342 12.7921 50.1849 12.0818C50.4356 11.3505 50.8117 10.7238 51.3131 10.2015C51.8145 9.67914 52.3995 9.28219 53.1099 8.98969C53.8202 8.6972 54.5932 8.55095 55.4707 8.55095C56.3691 8.55095 57.163 8.6972 57.8733 8.98969C58.5837 9.28219 59.1687 9.67914 59.6492 10.2015C60.1297 10.7238 60.5058 11.3505 60.7774 12.0818C61.0281 12.7921 61.1535 13.586 61.1535 14.4426C61.1535 15.2992 61.0281 16.0931 60.7774 16.8035C60.5058 17.5347 60.1297 18.1615 59.6492 18.6838C59.1687 19.1852 58.5837 19.603 57.8733 19.8955C57.163 20.188 56.3691 20.3343 55.4707 20.3343C54.5932 20.3343 53.8202 20.188 53.1099 19.8955C52.3995 19.603 51.8145 19.1852 51.3131 18.6838C50.8117 18.1615 50.4356 17.5347 50.1849 16.8035C49.9342 16.0931 49.788 15.2992 49.788 14.4426ZM52.7965 14.4426C52.7965 14.8605 52.8592 15.2783 52.9427 15.6753C53.0263 16.0931 53.1726 16.4692 53.4024 16.7826C53.6113 17.1168 53.8829 17.3884 54.2172 17.5765C54.5515 17.7645 54.9693 17.869 55.4707 17.869C55.993 17.869 56.4318 17.7645 56.766 17.5765C57.1003 17.3884 57.3719 17.1168 57.5809 16.8035C57.7898 16.4901 57.936 16.1349 58.0196 15.7171C58.1032 15.2992 58.1449 14.8814 58.1449 14.4426C58.1449 14.0039 58.1032 13.586 58.0196 13.1682C57.936 12.7503 57.7898 12.3743 57.5809 12.0609C57.3719 11.7475 57.1003 11.4968 56.766 11.2879C56.4318 11.0998 55.993 11.0163 55.4707 11.0163C54.9693 11.0163 54.5515 11.1207 54.2172 11.3088C53.8829 11.4968 53.6113 11.7684 53.4024 12.0818C53.1726 12.4161 53.0263 12.7712 52.9427 13.1891C52.8592 13.6069 52.7965 14.0248 52.7965 14.4426ZM66.2158 13.1055L70.3734 8.88523H74.2176L69.6213 13.5025L74.4056 20H70.645L67.3858 15.2992L66.2158 16.4901V20H63.3326V8.88523H66.2158V13.1055ZM78.6954 10.4731H78.7372C78.9252 10.1388 79.1342 9.84628 79.364 9.59557C79.5729 9.36576 79.8236 9.15683 80.0743 9.01059C80.3459 8.86434 80.6384 8.73898 80.9727 8.67631C81.2861 8.59274 81.6412 8.55095 82.0591 8.55095C82.3934 8.55095 82.7485 8.59274 83.1037 8.67631C83.4589 8.75988 83.8141 8.88523 84.1692 9.07326C84.5035 9.2404 84.8378 9.49111 85.1303 9.76271C85.4437 10.0552 85.7153 10.4313 85.9451 10.8491C86.1749 11.267 86.3629 11.7475 86.4883 12.3116C86.6345 12.8757 86.6972 13.5025 86.6972 14.2337C86.6972 15.1321 86.6136 15.9678 86.4047 16.699C86.2167 17.4511 85.9242 18.0988 85.5272 18.642C85.1303 19.1643 84.6498 19.5822 84.0648 19.8955C83.4589 20.188 82.7694 20.3343 81.9546 20.3343C81.683 20.3343 81.3905 20.3134 81.1189 20.2507C80.8264 20.2089 80.5548 20.1045 80.2832 19.9791C79.9907 19.8538 79.74 19.6657 79.5102 19.4568C79.2595 19.227 79.0506 18.9554 78.8626 18.6211H78.8208V24.3038H75.9376V8.88523H78.6954V10.4731ZM81.2025 11.1416C80.7429 11.1416 80.3459 11.2461 80.0325 11.4341C79.7191 11.643 79.4684 11.8937 79.2804 12.2071C79.0715 12.5205 78.9461 12.8757 78.8417 13.2726C78.7581 13.6696 78.7163 14.0457 78.7163 14.4426C78.7163 14.6515 78.7163 14.8814 78.7581 15.1321C78.779 15.3828 78.8208 15.6335 78.8835 15.8842C78.967 16.1349 79.0506 16.3856 79.1759 16.6154C79.2804 16.8661 79.4267 17.0751 79.6147 17.2631C79.8027 17.4302 80.0325 17.5765 80.2832 17.7018C80.534 17.8063 80.8473 17.869 81.2025 17.869C81.5577 17.869 81.8711 17.8063 82.1218 17.7018C82.3725 17.5765 82.6023 17.4302 82.7903 17.2631C82.9575 17.0751 83.1246 16.8661 83.25 16.6154C83.3544 16.3856 83.438 16.1349 83.5216 15.8842C83.5842 15.6335 83.626 15.3828 83.6678 15.1321C83.6887 14.8814 83.6887 14.6515 83.6887 14.4426C83.6887 14.0457 83.6469 13.6696 83.5634 13.2726C83.4589 12.8757 83.3335 12.5205 83.1455 12.2071C82.9366 11.8937 82.6859 11.643 82.3725 11.4341C82.0382 11.2461 81.6621 11.1416 81.2025 11.1416ZM97.7771 17.8063C97.7771 18.1406 97.7979 18.4122 97.8397 18.6211C97.8606 18.83 97.9233 19.0181 97.986 19.1225C98.0487 19.2688 98.1113 19.3523 98.1949 19.415C98.2785 19.4777 98.3412 19.5195 98.4456 19.5404V20H95.2491L95.0819 19.4777C94.9984 19.2688 94.9775 19.0181 94.9775 18.7047L94.3298 19.3523C94.1 19.5404 93.8702 19.7075 93.5986 19.8538C93.327 20 93.0345 20.1254 92.6793 20.2089C92.3241 20.2925 91.9063 20.3343 91.4258 20.3343C90.9243 20.3343 90.4647 20.2716 90.0469 20.1254C89.629 19.9791 89.2738 19.7493 88.9605 19.4777C88.668 19.1852 88.4172 18.83 88.2501 18.3913C88.083 17.9734 87.9994 17.472 87.9994 16.9079C87.9994 16.4483 88.0621 16.0304 88.2083 15.6335C88.3546 15.2365 88.5635 14.9022 88.8142 14.6098C89.0858 14.3173 89.3992 14.0666 89.7753 13.8785C90.1513 13.6696 90.5692 13.5442 91.0497 13.4816L93.8702 13.0637C93.9746 13.0428 94.0791 13.0428 94.2045 13.001C94.3298 12.9801 94.4343 12.9384 94.5387 12.8548C94.6432 12.7921 94.7268 12.7085 94.7894 12.6041C94.8521 12.4787 94.8939 12.3325 94.8939 12.1444C94.8939 11.9564 94.8521 11.7893 94.8103 11.643C94.7477 11.4759 94.6432 11.3505 94.5178 11.2461C94.3716 11.1207 94.2045 11.0372 93.9746 10.9745C93.7448 10.9118 93.4523 10.8909 93.118 10.8909C92.7211 10.8909 92.4286 10.9327 92.1988 10.9954C91.9481 11.0789 91.76 11.2043 91.6347 11.3296C91.4884 11.4759 91.384 11.643 91.3213 11.8102L91.1959 12.4161H88.3128C88.3128 12.2907 88.3337 12.1027 88.3755 11.852C88.4172 11.6221 88.5008 11.3505 88.6262 11.058C88.7306 10.7864 88.9187 10.4939 89.1276 10.2015C89.3365 9.90896 89.6081 9.63736 89.9842 9.38665C90.3185 9.15683 90.7572 8.94791 91.2586 8.80166C91.76 8.65541 92.345 8.57184 93.0554 8.55095C94.0373 8.55095 94.8521 8.65541 95.4789 8.84345C96.0848 9.05237 96.5653 9.32397 96.9205 9.63736C97.2547 9.97164 97.4846 10.3268 97.6099 10.7238C97.7144 11.1207 97.7771 11.5177 97.7771 11.9146V17.8063ZM94.8939 14.568C94.7268 14.6724 94.5387 14.756 94.3716 14.8187C94.1836 14.9022 93.9537 14.9858 93.6612 15.0276L92.8882 15.1739C92.5539 15.2365 92.2615 15.2992 92.0107 15.3828C91.76 15.4663 91.5511 15.5708 91.384 15.6962C91.2168 15.8424 91.0915 16.0095 91.0079 16.1976C90.9243 16.3856 90.8826 16.6154 90.8826 16.9079C90.8826 17.1377 90.9243 17.3467 90.987 17.5138C91.0706 17.7018 91.175 17.8272 91.3213 17.9525C91.4467 18.057 91.5929 18.1615 91.76 18.2033C91.9481 18.2659 92.1361 18.2868 92.345 18.2868C92.4495 18.2868 92.5957 18.2659 92.7629 18.245C92.93 18.2241 93.0972 18.1824 93.3061 18.1197C93.4941 18.0361 93.6821 17.9525 93.8702 17.8272C94.0582 17.7227 94.2253 17.5556 94.3716 17.3676C94.5387 17.1795 94.6641 16.9497 94.7477 16.6572C94.8312 16.3856 94.8939 16.0722 94.8939 15.6962V14.568ZM99.4414 8.88523H109.052V11.2252H105.688V20H102.805V11.2252H99.4414V8.88523ZM113.732 15.7379H113.774L117.827 8.88523H120.856V20H117.973V13.2935H117.931L114.003 20H110.849V8.88523H113.732V15.7379ZM126.588 13.1055L130.745 8.88523H134.589L129.993 13.5025L134.777 20H131.017L127.758 15.2992L126.588 16.4901V20H123.704V8.88523H126.588V13.1055Z" fill="black"/>
</svg>
