<svg width="20" height="20" viewBox="0 0 20 20" fill="none" xmlns="http://www.w3.org/2000/svg">
<g filter="url(#filter0_d_13784_48)">
<path fill-rule="evenodd" clip-rule="evenodd" d="M12.7144 3.44562L11.3258 2.05699C10.5935 1.32476 9.40632 1.32476 8.67408 2.05699L7.28544 3.44562H5.32161C4.28607 3.44562 3.44661 4.28509 3.44661 5.32062V7.28446L2.05796 8.6731C1.32573 9.40533 1.32573 10.5925 2.05796 11.3247L3.44661 12.7134V14.6772C3.44661 15.7127 4.28607 16.5522 5.32161 16.5522H7.28544L8.67408 17.9408C9.40631 18.6731 10.5935 18.6731 11.3258 17.9408L12.7144 16.5522H14.6782C15.7138 16.5522 16.5532 15.7127 16.5532 14.6772V12.7134L17.9419 11.3247C18.6741 10.5925 18.6741 9.40534 17.9419 8.6731L16.5532 7.28446V5.32063C16.5532 4.28509 15.7138 3.44562 14.6782 3.44562H12.7144ZM12.0136 4.51257C12.1308 4.62978 12.2898 4.69562 12.4555 4.69562H14.6782C15.0234 4.69562 15.3032 4.97545 15.3032 5.32063V7.54334C15.3032 7.70911 15.3691 7.86808 15.4863 7.98529L17.058 9.557C17.3021 9.80107 17.3021 10.1968 17.058 10.4408L15.4863 12.0125C15.3691 12.1298 15.3032 12.2887 15.3032 12.4545V14.6772C15.3032 15.0224 15.0234 15.3022 14.6782 15.3022H12.4555C12.2898 15.3022 12.1308 15.3681 12.0136 15.4853L10.4419 17.057C10.1978 17.301 9.80204 17.301 9.55797 17.057L7.98627 15.4853C7.86906 15.3681 7.71008 15.3022 7.54432 15.3022H5.32161C4.97643 15.3022 4.69661 15.0224 4.69661 14.6772V12.4545C4.69661 12.2887 4.63076 12.1298 4.51355 12.0125L2.94185 10.4408C2.69777 10.1968 2.69777 9.80107 2.94185 9.557L4.51355 7.98529C4.63076 7.86808 4.69661 7.70911 4.69661 7.54334V5.32062C4.69661 4.97545 4.97643 4.69562 5.32161 4.69562H7.54432C7.71008 4.69562 7.86906 4.62978 7.98627 4.51257L9.55797 2.94087C9.80204 2.69679 10.1978 2.69679 10.4419 2.94087L12.0136 4.51257Z" fill="white"/>
<path d="M12.4555 4.69562C12.2897 4.69562 12.1308 4.62978 12.0135 4.51257L10.4418 2.94087C10.1978 2.69679 9.80201 2.69679 9.55793 2.94087L7.98623 4.51257C7.86902 4.62978 7.71005 4.69562 7.54429 4.69562H5.32157C4.9764 4.69562 4.69657 4.97545 4.69657 5.32062V7.54334C4.69657 7.7091 4.63073 7.86807 4.51352 7.98528L2.94182 9.55698C2.69774 9.80106 2.69774 10.1968 2.94182 10.4408L4.51352 12.0125C4.63073 12.1298 4.69657 12.2887 4.69657 12.4545V14.6772C4.69657 15.0224 4.9764 15.3022 5.32157 15.3022H7.54429C7.71005 15.3022 7.86902 15.3681 7.98623 15.4853L9.55793 17.057C9.80201 17.301 10.1978 17.301 10.4418 17.057L12.0135 15.4853C12.1308 15.3681 12.2897 15.3022 12.4555 15.3022H14.6782C15.0234 15.3022 15.3032 15.0224 15.3032 14.6772V12.4545C15.3032 12.2887 15.3691 12.1298 15.4863 12.0125L17.058 10.4408C17.302 10.1968 17.302 9.80106 17.058 9.55698L15.4863 7.98528C15.3691 7.86807 15.3032 7.7091 15.3032 7.54334V5.32062C15.3032 4.97545 15.0234 4.69562 14.6782 4.69562H12.4555Z" fill="#35B9E9"/>
<path fill-rule="evenodd" clip-rule="evenodd" d="M13.3582 8.35849L9.16623 12.5504L7.05762 10.4418L7.94151 9.55794L9.16623 10.7827L12.4743 7.47461L13.3582 8.35849Z" fill="white"/>
</g>
<defs>
<filter id="filter0_d_13784_48" x="-2.49121" y="-0.492188" width="24.9822" height="24.9822" filterUnits="userSpaceOnUse" color-interpolation-filters="sRGB">
<feFlood flood-opacity="0" result="BackgroundImageFix"/>
<feColorMatrix in="SourceAlpha" type="matrix" values="0 0 0 0 0 0 0 0 0 0 0 0 0 0 0 0 0 0 127 0" result="hardAlpha"/>
<feOffset dy="2"/>
<feGaussianBlur stdDeviation="2"/>
<feColorMatrix type="matrix" values="0 0 0 0 0.105882 0 0 0 0 0.109804 0 0 0 0 0.113725 0 0 0 0.04 0"/>
<feBlend mode="normal" in2="BackgroundImageFix" result="effect1_dropShadow_13784_48"/>
<feBlend mode="normal" in="SourceGraphic" in2="effect1_dropShadow_13784_48" result="shape"/>
</filter>
</defs>
</svg>
