<svg width="22" height="16" viewBox="0 0 22 16" fill="none" xmlns="http://www.w3.org/2000/svg">
<path fill-rule="evenodd" clip-rule="evenodd" d="M20.595 0.462026C20.8908 0.758245 21.057 1.15978 21.057 1.57844C21.057 1.9971 20.8908 2.39863 20.595 2.69485L7.75203 15.5378C7.60376 15.6859 7.42751 15.8031 7.23353 15.8824C7.03956 15.9618 6.83173 16.0017 6.62216 15.9999C6.4126 15.9982 6.20547 15.9547 6.01286 15.8721C5.82025 15.7895 5.64599 15.6695 5.50024 15.5189L0.438465 10.2865C0.149798 9.98484 -0.00773511 9.5812 0.000292415 9.16378C0.00831994 8.74635 0.181255 8.34907 0.481306 8.05876C0.781356 7.76846 1.18412 7.60872 1.60159 7.61447C2.01905 7.62022 2.41727 7.79099 2.70921 8.08945L6.65457 12.1675L18.3622 0.462026C18.6584 0.166176 19.0599 0 19.4786 0C19.8972 0 20.2988 0.166176 20.595 0.462026Z" fill="white"/>
</svg>
