<svg width="20" height="20" viewBox="0 0 20 20" fill="none" xmlns="http://www.w3.org/2000/svg">
<path d="M7.8617 18.5201C11.2962 15.1046 13.9828 12.3744 16.9712 9.44353C17.9578 8.41309 18.5826 7.40458 18.8457 6.41799C19.3061 4.55621 18.5982 2.94399 17.3658 1.68238C16.1819 0.498477 14.9158 -0.0605844 13.5675 0.0051934C11.545 0.10386 10.8873 0.750627 9.5718 2.04414L1.18578 10.463L2.56701 11.8113L10.953 3.42534C11.8135 2.60723 12.8375 1.83593 14.0114 1.94546C15.8 2.19656 17.3796 4.38573 16.9712 5.92469C16.4534 7.29009 15.7395 7.91284 14.7514 8.90088C11.7457 11.8989 9.40213 14.2173 6.48051 17.1389C5.38251 18.1422 4.67241 18.4138 3.65231 17.4677C3.12614 16.9415 2.89593 16.4263 2.9617 15.9221C3.03468 15.3337 3.36775 14.9268 3.75095 14.5409L11.4134 6.87836C11.7635 6.52769 12.5607 5.85461 12.8933 6.15488C13.1485 6.74689 12.4913 7.31196 12.1698 7.63476L5.13216 14.6724L6.48048 16.0536L13.551 9.01601C14.7688 7.75993 15.6438 6.22501 14.2745 4.80658C12.7601 3.50678 11.1648 4.37453 10.0322 5.49719L2.36971 13.1597C1.58045 13.9489 1.13101 14.804 1.0214 15.7248C0.93493 17.0157 1.51695 18.0519 2.30395 18.849C3.0437 19.5847 3.84288 19.9922 4.83621 20C6.03048 19.9522 7.20475 19.1656 7.8617 18.5201Z" fill="black"/>
</svg>
