<svg width="12" height="12" viewBox="0 0 12 12" fill="none" xmlns="http://www.w3.org/2000/svg">
<path d="M5.55601 11.6825L4.85574 9.61673C4.469 8.47584 3.56874 7.54605 2.38323 7.14421L0.317469 6.44397C-0.105858 6.30046 -0.105788 5.69946 0.317469 5.55597L2.38323 4.85571C3.52412 4.46899 4.45388 3.56869 4.85574 2.38319L5.55601 0.317461C5.69951 -0.105867 6.30052 -0.105773 6.444 0.317461L7.14427 2.38319C7.53101 3.52408 8.43127 4.45385 9.61678 4.85571L11.6825 5.55597C12.1059 5.69948 12.1058 6.30049 11.6825 6.44397L9.61678 7.14421C8.47594 7.53093 7.54613 8.43124 7.14427 9.61673L6.444 11.6825C6.3005 12.1058 5.69947 12.1057 5.55601 11.6825Z" fill="#EFF2F5"/>
</svg>
