<svg width="50" height="50" viewBox="0 0 50 50" fill="none" xmlns="http://www.w3.org/2000/svg">
<path d="M25 4.16669C36.5063 4.16669 45.8333 13.4938 45.8333 25C45.8333 36.5063 36.5063 45.8334 25 45.8334C13.4938 45.8334 4.16667 36.5063 4.16667 25C4.16667 13.4938 13.4938 4.16669 25 4.16669ZM25 8.33335C20.5797 8.33335 16.3405 10.0893 13.2149 13.2149C10.0893 16.3405 8.33334 20.5797 8.33334 25C8.33334 29.4203 10.0893 33.6595 13.2149 36.7851C16.3405 39.9107 20.5797 41.6667 25 41.6667C29.4203 41.6667 33.6595 39.9107 36.7851 36.7851C39.9107 33.6595 41.6667 29.4203 41.6667 25C41.6667 20.5797 39.9107 16.3405 36.7851 13.2149C33.6595 10.0893 29.4203 8.33335 25 8.33335ZM25 12.5C25.5103 12.5001 26.0028 12.6874 26.3841 13.0265C26.7654 13.3656 27.0091 13.8328 27.0688 14.3396L27.0833 14.5834V24.1375L32.7229 29.7771C33.0966 30.152 33.3135 30.6551 33.3296 31.1842C33.3458 31.7132 33.16 32.2286 32.8099 32.6256C32.4598 33.0226 31.9718 33.2715 31.4449 33.3217C30.9179 33.3719 30.3917 33.2196 29.9729 32.8959L29.7771 32.7229L23.5271 26.4729C23.2033 26.1489 22.9953 25.7271 22.9354 25.2729L22.9167 25V14.5834C22.9167 14.0308 23.1362 13.5009 23.5269 13.1102C23.9176 12.7195 24.4475 12.5 25 12.5Z" fill="#1252D3"/>
</svg>
