<svg width="15" height="20" viewBox="0 0 15 20" fill="none" xmlns="http://www.w3.org/2000/svg">
<path d="M1.85186 9.83796C1.85186 10.0849 1.86729 10.3281 1.89816 10.5676C1.92902 10.8071 1.98303 11.0423 2.0602 11.2731C2.13736 11.5355 2.12964 11.7864 2.03705 12.0259C1.94445 12.2654 1.78242 12.4389 1.55094 12.5463C1.30402 12.6698 1.06112 12.6815 0.822233 12.5815C0.583344 12.4815 0.42501 12.3 0.347233 12.037C0.223776 11.6821 0.134887 11.3194 0.0805659 10.9491C0.0262449 10.5787 -0.00060688 10.2083 1.04037e-05 9.83796C1.04037e-05 7.77006 0.717603 6.0108 2.15279 4.56019C3.58797 3.10957 5.33952 2.38426 7.40742 2.38426H7.56945L6.73612 1.55093C6.56637 1.38117 6.48149 1.16512 6.48149 0.902778C6.48149 0.640432 6.56637 0.424383 6.73612 0.25463C6.90587 0.0848766 7.12192 0 7.38427 0C7.64662 0 7.86266 0.0848766 8.03242 0.25463L10.4398 2.66204C10.625 2.84722 10.7176 3.06327 10.7176 3.31019C10.7176 3.5571 10.625 3.77315 10.4398 3.95833L8.03242 6.36574C7.86266 6.53549 7.64662 6.62037 7.38427 6.62037C7.12192 6.62037 6.90587 6.53549 6.73612 6.36574C6.56637 6.19599 6.48149 5.97994 6.48149 5.71759C6.48149 5.45525 6.56637 5.2392 6.73612 5.06944L7.56945 4.23611H7.40742C5.86421 4.23611 4.55248 4.78025 3.47223 5.86852C2.39199 6.95679 1.85186 8.27994 1.85186 9.83796ZM12.963 9.74537C12.963 9.49846 12.9475 9.25556 12.9167 9.01667C12.8858 8.77778 12.8318 8.54228 12.7546 8.31018C12.6775 8.04784 12.6852 7.79722 12.7778 7.55833C12.8704 7.31944 13.0324 7.14568 13.2639 7.03704C13.5108 6.91358 13.7537 6.90216 13.9926 7.00278C14.2315 7.10339 14.3898 7.28457 14.4676 7.5463C14.5911 7.90123 14.6799 8.26389 14.7343 8.63426C14.7886 9.00463 14.8154 9.375 14.8148 9.74537C14.8148 11.8133 14.0972 13.5725 12.662 15.0231C11.2269 16.4738 9.47532 17.1991 7.40742 17.1991H7.24538L8.07871 18.0324C8.24847 18.2022 8.33334 18.4182 8.33334 18.6806C8.33334 18.9429 8.24847 19.159 8.07871 19.3287C7.90896 19.4985 7.69291 19.5833 7.43057 19.5833C7.16822 19.5833 6.95217 19.4985 6.78242 19.3287L4.37501 16.9213C4.18983 16.7361 4.09723 16.5201 4.09723 16.2731C4.09723 16.0262 4.18983 15.8102 4.37501 15.625L6.78242 13.2176C6.95217 13.0478 7.16822 12.963 7.43057 12.963C7.69291 12.963 7.90896 13.0478 8.07871 13.2176C8.24847 13.3873 8.33334 13.6034 8.33334 13.8657C8.33334 14.1281 8.24847 14.3441 8.07871 14.5139L7.24538 15.3472H7.40742C8.95063 15.3472 10.2624 14.8034 11.3426 13.7157C12.4228 12.6281 12.963 11.3046 12.963 9.74537Z" fill="black"/>
</svg>
